# xmcd
#
# Track frame offsets: 
#        150
#        26176
#        47035
#        65586
#        79762
#        92413
#        115634
#        130339
#        152427
#        171562
#        187492
#        200759
#        213214
#        232741
#        251905
#        268738
#
# Disc length: 3918 seconds
#
# Revision: 1
# Processed by: cddbd v1.5.1PL0 Copyright (c) Steve Scherf et al.
# Submitted via: ExactAudioCopy v0.95a5
#
DISCID=e70f4c10
DTITLE=Twisted Halo - In Loving Memory Of The Fearless Exploits Of The
DTITLE=Bolo Brigade
DYEAR=2003
DGENRE=Alternative
TTITLE0=Breakable
TTITLE1=Irene
TTITLE2=My Happy Thoughts
TTITLE3=Closed Captioned
TTITLE4=Hostile Takeover
TTITLE5=#36
TTITLE6=All About Relationships
TTITLE7=Asan Na?
TTITLE8=Solace
TTITLE9=Miron
TTITLE10=Again
TTITLE11=Slow
TTITLE12=Public Service Announcement
TTITLE13=Unsettled
TTITLE14=Revelation
TTITLE15=Pyramids
EXTD=brad!!!
EXTT0=
EXTT1=
EXTT2=
EXTT3=
EXTT4=
EXTT5=
EXTT6=
EXTT7=
EXTT8=
EXTT9=
EXTT10=
EXTT11=
EXTT12=
EXTT13=
EXTT14=
EXTT15=
PLAYORDER=
